PathFileType	4	(X/Y/Z)	/Users/itak/Documents/Research/Walk-IL/dataset/trc/00513_00183.trc
DataRate	CameraRate	NumFrames	NumMarkers	Units	OrigDataRate	OrigDataStartFrame	OrigNumFrames
100.000000	100.000000	4	55	mm	100.000000	186	298
Frame#	Time	RPSI			LPSI			L3			STRN			T10			C7			CLAV			RBAK			LBAK			LSHO			LUPA			LAEL			LAOL			LWTS			LWPS			LFRA			LIFD			LHPS			LHTS			RSHO			RUPA			RAEL			RAOL			RWTS			RWPS			RFRA			RIFD			RHTS			RHPS			RBHD			LFHD			RFHD			LBHD			LHIP			RHIP			RASI			LASI			LKNE			LTHI			LANK			LTIP			LTOE			LMT1			LMT5			LHEE			RKNE			RANK			RTIP			RTOE			RMT1			RMT5			RHEE			RTHI			*53			*54			
		X1	Y1	Z1	X2	Y2	Z2	X3	Y3	Z3	X4	Y4	Z4	X5	Y5	Z5	X6	Y6	Z6	X7	Y7	Z7	X8	Y8	Z8	X9	Y9	Z9	X10	Y10	Z10	X11	Y11	Z11	X12	Y12	Z12	X13	Y13	Z13	X14	Y14	Z14	X15	Y15	Z15	X16	Y16	Z16	X17	Y17	Z17	X18	Y18	Z18	X19	Y19	Z19	X20	Y20	Z20	X21	Y21	Z21	X22	Y22	Z22	X23	Y23	Z23	X24	Y24	Z24	X25	Y25	Z25	X26	Y26	Z26	X27	Y27	Z27	X28	Y28	Z28	X29	Y29	Z29	X30	Y30	Z30	X31	Y31	Z31	X32	Y32	Z32	X33	Y33	Z33	X34	Y34	Z34	X35	Y35	Z35	X36	Y36	Z36	X37	Y37	Z37	X38	Y38	Z38	X39	Y39	Z39	X40	Y40	Z40	X41	Y41	Z41	X42	Y42	Z42	X43	Y43	Z43	X44	Y44	Z44	X45	Y45	Z45	X46	Y46	Z46	X47	Y47	Z47	X48	Y48	Z48	X49	Y49	Z49	X50	Y50	Z50	X51	Y51	Z51	X52	Y52	Z52	X53	Y53	Z53	X54	Y54	Z54	X55	Y55	Z55	

187	1.86	91.43456268310547	921.956298828125	204.9733734130859	152.9059600830078	935.11279296875	97.34669494628906	140.7344055175781	1012.154724121094	146.8367614746094	357.9428405761719	1138.756469726562	276.1977844238281	150.9730529785156	1118.602783203125	151.3879852294922	224.3412628173828	1338.327026367188	191.1358032226562	341.2980651855469	1238.276977539062	265.0950012207031	121.655876159668	1228.046630859375	229.5126800537109	241.5403900146484	1284.396118164062	99.23251342773438	366.1846008300781	1316.782470703125	88.946533203125	380.3058166503906	1185.809936523438	31.31448364257812	387.3370666503906	1023.386596679688	37.42877960205078	304.9177856445312	958.919677734375	39.59543991088867	468.041259765625	1093.60400390625	201.0942993164062	475.516357421875	1004.462158203125	231.7284698486328	425.8003540039062	1020.442260742188	92.02314758300781	505.8901672363281	1093.206909179688	343.8103637695312	509.1963500976562	1021.176818847656	274.2950134277344	521.8268432617188	1085.302124023438	262.5827026367188	191.0658416748047	1325.428588867188	347.4981079101562	128.5998077392578	1274.4765625	371.8406372070312	-16.61860084533691	1053.37841796875	345.6068725585938	-32.44000244140625	1051.074951171875	281.6840515136719	62.80359268188477	863.475341796875	405.0257873535156	-17.81529808044434	841.3386840820312	368.1840209960938	-31.1553897857666	1000.791809082031	348.2274780273438	40.70023345947266	707.6751708984375	431.1954650878906	38.42834854125977	777.8058471679688	445.3797607421875	-17.65976524353027	776.8530883789062	400.2578430175781	205.0966033935547	1469.635620117188	280.6607055664062	374.9778137207031	1554.13720703125	217.7923583984375	309.2890625	1547.431518554688	326.480712890625	275.5198364257812	1470.799072265625	137.6573333740234	304.5281066894531	858.3048095703125	26.49820899963379	127.4224243164062	816.8546142578125	361.4999694824219	245.0040893554688	861.2822265625	349.2205810546875	356.3530578613281	882.8069458007812	133.5500335693359	253.1343383789062	436.2174072265625	105.7011795043945	295.3624877929688	589.7307739257812	73.26045227050781	33.81501770019531	60.19924545288086	22.32400321960449	188.6819000244141	295.7560119628906	81.59366607666016	187.0988922119141	33.75391006469727	152.1406860351562	103.2779235839844	36.9272346496582	154.9571838378906	136.7091369628906	42.39450073242188	57.33613204956055	-38.63369369506836	58.83884429931641	53.0797004699707	287.5743408203125	475.8770751953125	414.122802734375	-3.664663314819336	206.1962280273438	281.5554809570312	234.6611633300781	365.6145935058594	391.7551574707031	107.37353515625	63.9167594909668	363.5593566894531	97.43316650390625	89.66619873046875	295.7371215820312	33.16947937011719	131.4826354980469	354.6329345703125	-4.76117467880249	222.8539428710938	213.1894836425781	181.4452209472656	703.8604736328125	387.9588623046875	nan	nan	nan	nan	nan	nan	
188	1.87	109.5334854125977	926.4981689453125	214.1380920410156	172.9134216308594	938.8665161132812	107.6649551391602	160.2031860351562	1015.701477050781	154.6072387695312	372.7058715820312	1143.869873046875	290.9886779785156	169.7590026855469	1122.23388671875	157.7227783203125	241.1164703369141	1342.209350585938	199.2738342285156	355.9903869628906	1243.419555664062	278.6646728515625	137.6456604003906	1231.950805664062	234.0682525634766	262.0906066894531	1288.126953125	108.21826171875	386.9625244140625	1321.232421875	103.0038070678711	404.3549194335938	1189.813842773438	47.24628829956055	412.1761779785156	1027.315795898438	55.37905120849609	330.1431884765625	962.4930419921875	54.93008041381836	486.1348571777344	1098.9775390625	221.5346527099609	492.8920593261719	1009.923583984375	252.7450103759766	448.6461181640625	1024.9931640625	111.5565338134766	520.585693359375	1099.056030273438	364.7966003417969	525.5084838867188	1026.93603515625	295.8410034179688	538.4168701171875	1091.007690429688	284.0733947753906	201.9891357421875	1330.33349609375	353.9896850585938	138.7722320556641	1280.584594726562	375.6950988769531	-8.904777526855469	1062.813720703125	344.4543151855469	-21.21527671813965	1059.745361328125	279.8773193359375	64.4105224609375	871.7862548828125	409.9459838867188	-15.00915336608887	850.79638671875	369.8575439453125	-24.31981086730957	1010.395263671875	346.9989013671875	38.27877426147461	716.8402099609375	437.0125122070312	36.51881408691406	787.2098999023438	450.2979125976562	-17.54936408996582	786.8034057617188	402.7387390136719	220.7820587158203	1475.737670898438	290.8707885742188	391.8250122070312	1557.681030273438	227.7704925537109	325.8452758789062	1552.480224609375	336.3679809570312	291.4639587402344	1475.138061523438	147.9637451171875	324.590087890625	860.78466796875	39.20524978637695	143.4193725585938	822.977294921875	372.4404602050781	260.8671875	867.1712646484375	361.3833923339844	375.2134094238281	885.2490844726562	147.0044555664062	259.1684875488281	440.162353515625	109.0235366821289	306.8388366699219	592.7238159179688	81.10260772705078	36.33700942993164	65.73653411865234	22.26112174987793	193.6014251708984	300.4028625488281	82.91191864013672	186.8718109130859	33.79289245605469	152.0853118896484	104.3059921264648	38.41755294799805	155.0988159179688	137.9921875	43.31245803833008	57.12801361083984	-35.66214370727539	67.58806610107422	53.25331115722656	315.318603515625	486.4734191894531	427.6639404296875	40.82442474365234	192.3246917724609	305.2467346191406	269.4639892578125	370.8919372558594	408.7033996582031	163.9751434326172	61.60867691040039	388.1456909179688	151.0234222412109	84.93154144287109	320.0869445800781	84.41663360595703	122.4078598022461	379.1574096679688	37.89499664306641	207.4502716064453	236.4303894042969	200.2447509765625	711.3802490234375	400.0283508300781	nan	nan	nan	nan	nan	nan	
189	1.88	127.8952484130859	931.5504150390625	223.7002258300781	193.1573638916016	943.1781005859375	118.434440612793	179.9580535888672	1019.744323730469	162.9663543701172	387.5515441894531	1149.5712890625	305.6719665527344	188.7893981933594	1126.2919921875	164.3324584960938	257.8313293457031	1346.600952148438	207.6402435302734	370.6747436523438	1249.11767578125	292.13916015625	153.8286743164062	1236.288940429688	238.9432678222656	282.4322814941406	1292.36865234375	117.5992279052734	407.2972412109375	1326.215698242188	117.0895538330078	427.3219604492188	1194.514892578125	63.00371170043945	435.6188354492188	1031.83349609375	72.7144775390625	353.8994750976562	966.9652709960938	69.81423950195312	503.6559143066406	1103.880249023438	241.2235717773438	509.3398132324219	1014.820617675781	272.7059936523438	470.2388305664062	1029.726928710938	130.3010559082031	534.8687133789062	1103.896118164062	384.8388366699219	541.0258178710938	1031.853515625	316.3230590820312	554.4805908203125	1095.809448242188	304.6524353027344	213.2584686279297	1335.63134765625	360.5816650390625	149.5104522705078	1286.98486328125	379.6809997558594	0.03265845775604248	1072.347290039062	343.4382019042969	-8.80912971496582	1068.381713867188	278.3884887695312	67.58364868164062	880.6517333984375	414.7943725585938	-10.51435947418213	860.4345092773438	371.8428649902344	-16.05716514587402	1020.146606445312	345.9306030273438	38.0906867980957	726.6286010742188	442.917724609375	36.62548065185547	797.23828125	455.2010498046875	-15.4348030090332	797.010009765625	405.4957580566406	236.3598175048828	1482.46337890625	301.2220458984375	408.6468200683594	1561.697509765625	238.0154113769531	342.3898620605469	1557.937377929688	346.501220703125	307.3580322265625	1480.243530273438	158.3606262207031	344.9047546386719	864.0061645507812	52.19866943359375	159.7725067138672	829.7416381835938	383.7882690429688	277.0415954589844	873.5789184570312	373.7423095703125	394.3257446289062	888.3469848632812	160.7350616455078	266.6448364257812	445.1726379394531	112.720832824707	319.2597045898438	596.636962890625	89.32960510253906	39.87069320678711	72.28277587890625	22.37679481506348	199.9224243164062	306.1663513183594	84.4986572265625	186.7159576416016	33.78255844116211	152.0319671630859	105.7714233398438	40.24921417236328	155.3421783447266	139.7920227050781	44.40796279907227	56.93093490600586	-31.39076232910156	77.77003479003906	53.7662353515625	341.0750732421875	496.9080810546875	440.177734375	86.5875244140625	177.8887023925781	328.6837768554688	302.8982849121094	376.1317443847656	425.0108337402344	221.2821502685547	60.18244171142578	412.3394165039062	205.6220855712891	80.89420318603516	344.1157836914062	136.670166015625	113.4645462036133	403.3580322265625	81.98971557617188	191.3623504638672	259.5109558105469	219.1574401855469	719.40966796875	412.1595764160156	nan	nan	nan	nan	nan	nan	
190	1.89	146.4322052001953	936.9742431640625	233.7718505859375	213.4573974609375	947.9556274414062	129.7122497558594	199.8314666748047	1024.217407226562	172.0103454589844	402.5116271972656	1155.675537109375	320.1609497070312	207.9054870605469	1130.6943359375	171.3439788818359	274.5199890136719	1351.396362304688	216.2652130126953	385.3948059082031	1255.1787109375	305.4620056152344	170.1845245361328	1241.002807617188	244.2672271728516	302.5357055664062	1297.023315429688	127.3554992675781	427.2030639648438	1331.580444335938	131.1496276855469	449.3182373046875	1199.732543945312	78.49172210693359	457.8229064941406	1036.7451171875	89.31915283203125	376.3038024902344	972.1007690429688	84.11268615722656	520.69970703125	1108.199951171875	260.1512451171875	525.0703735351562	1019.041198730469	291.5929565429688	490.7501525878906	1034.473999023438	148.1590270996094	548.7088012695312	1107.688354492188	404.0070190429688	555.8865966796875	1035.85791015625	335.7940673828125	570.0881958007812	1099.669677734375	324.3841857910156	225.0003356933594	1341.165771484375	367.3943481445312	160.8879089355469	1293.515747070312	384.0037231445312	10.20564270019531	1081.765502929688	342.7195129394531	4.751556396484375	1076.836059570312	277.3645935058594	72.31973266601562	889.7820434570312	419.6622619628906	-4.352211952209473	870.0240478515625	374.1445007324219	-6.400145053863525	1029.831176757812	345.1849060058594	39.96956634521484	736.7240600585938	448.9755554199219	38.63837051391602	807.5707397460938	460.1636047363281	-11.42293548583984	807.229248046875	408.5394897460938	251.8572387695312	1489.558349609375	311.6832580566406	425.3941345214844	1566.074096679688	248.4719390869141	358.8902587890625	1563.64453125	356.836181640625	323.2296447753906	1485.915283203125	168.8036804199219	365.3012084960938	867.9566040039062	65.42081451416016	176.5719604492188	836.943359375	395.5557861328125	293.5990295410156	880.3573608398438	386.2505187988281	413.609375	892.1271362304688	174.6314849853516	275.9454956054688	451.0009460449219	116.9324798583984	332.8797607421875	601.3455810546875	98.0263671875	44.63111114501953	79.77401733398438	22.69006156921387	207.8759613037109	312.8843688964844	86.44751739501953	186.6506042480469	33.70864105224609	151.9764709472656	107.7434997558594	42.44204711914062	155.6614379882812	142.1912384033203	45.65829849243164	56.76427841186523	-25.53813552856445	89.27934265136719	54.63215255737305	364.801513671875	506.7059631347656	451.802978515625	133.5889739990234	163.2257080078125	351.7374267578125	334.7730712890625	381.0374755859375	440.6994934082031	278.8749084472656	59.82415771484375	436.0790100097656	260.8509521484375	77.77485656738281	367.7370910644531	189.7150726318359	104.9662628173828	427.1409912109375	127.4866104125977	174.9488830566406	282.3001708984375	238.1870269775391	727.675048828125	424.393798828125	nan	nan	nan	nan	nan	nan	
